<?xml version="1.0" standalone="no"?><svg xmlns="http://www.w3.org/2000/svg" viewBox="0 0 1440 320"><path fill="#F41E1E" fill-opacity="1" d="M0,128L30,122.7C60,117,120,107,180,90.7C240,75,300,53,360,85.3C420,117,480,203,540,218.7C600,235,660,181,720,170.7C780,160,840,192,900,181.3C960,171,1020,117,1080,96C1140,75,1200,85,1260,85.3C1320,85,1380,75,1410,69.3L1440,64L1440,0L1410,0C1380,0,1320,0,1260,0C1200,0,1140,0,1080,0C1020,0,960,0,900,0C840,0,780,0,720,0C660,0,600,0,540,0C480,0,420,0,360,0C300,0,240,0,180,0C120,0,60,0,30,0L0,0Z"></path></svg>